<?xml version="1.0" encoding="UTF-8"?>
<!DOCTYPE svg PUBLIC "-//W3C//DTD SVG 1.1//EN" "http://www.w3.org/Graphics/SVG/1.1/DTD/svg11.dtd">
<svg version="1.2" width="71.01mm" height="71.01mm" viewBox="13 13 7101 7101" preserveAspectRatio="xMidYMid" fill-rule="evenodd" stroke-width="28.222" stroke-linejoin="round" xmlns="http://www.w3.org/2000/svg" xmlns:ooo="http://xml.openoffice.org/svg/export" xmlns:xlink="http://www.w3.org/1999/xlink" xmlns:presentation="http://sun.com/xmlns/staroffice/presentation" xmlns:smil="http://www.w3.org/2001/SMIL20/" xmlns:anim="urn:oasis:names:tc:opendocument:xmlns:animation:1.0" xml:space="preserve">
 <defs class="EmbeddedBulletChars">
  <g id="bullet-char-template-57356" transform="scale(0.00048828125,-0.00048828125)">
   <path d="M 580,1141 L 1163,571 580,0 -4,571 580,1141 Z"/>
  </g>
  <g id="bullet-char-template-57354" transform="scale(0.00048828125,-0.00048828125)">
   <path d="M 8,1128 L 1137,1128 1137,0 8,0 8,1128 Z"/>
  </g>
  <g id="bullet-char-template-10146" transform="scale(0.00048828125,-0.00048828125)">
   <path d="M 174,0 L 602,739 174,1481 1456,739 174,0 Z M 1358,739 L 309,1346 659,739 1358,739 Z"/>
  </g>
  <g id="bullet-char-template-10132" transform="scale(0.00048828125,-0.00048828125)">
   <path d="M 2015,739 L 1276,0 717,0 1260,543 174,543 174,936 1260,936 717,1481 1274,1481 2015,739 Z"/>
  </g>
  <g id="bullet-char-template-10007" transform="scale(0.00048828125,-0.00048828125)">
   <path d="M 0,-2 C -7,14 -16,27 -25,37 L 356,567 C 262,823 215,952 215,954 215,979 228,992 255,992 264,992 276,990 289,987 310,991 331,999 354,1012 L 381,999 492,748 772,1049 836,1024 860,1049 C 881,1039 901,1025 922,1006 886,937 835,863 770,784 769,783 710,716 594,584 L 774,223 C 774,196 753,168 711,139 L 727,119 C 717,90 699,76 672,76 641,76 570,178 457,381 L 164,-76 C 142,-110 111,-127 72,-127 30,-127 9,-110 8,-76 1,-67 -2,-52 -2,-32 -2,-23 -1,-13 0,-2 Z"/>
  </g>
  <g id="bullet-char-template-10004" transform="scale(0.00048828125,-0.00048828125)">
   <path d="M 285,-33 C 182,-33 111,30 74,156 52,228 41,333 41,471 41,549 55,616 82,672 116,743 169,778 240,778 293,778 328,747 346,684 L 369,508 C 377,444 397,411 428,410 L 1163,1116 C 1174,1127 1196,1133 1229,1133 1271,1133 1292,1118 1292,1087 L 1292,965 C 1292,929 1282,901 1262,881 L 442,47 C 390,-6 338,-33 285,-33 Z"/>
  </g>
  <g id="bullet-char-template-9679" transform="scale(0.00048828125,-0.00048828125)">
   <path d="M 813,0 C 632,0 489,54 383,161 276,268 223,411 223,592 223,773 276,916 383,1023 489,1130 632,1184 813,1184 992,1184 1136,1130 1245,1023 1353,916 1407,772 1407,592 1407,412 1353,268 1245,161 1136,54 992,0 813,0 Z"/>
  </g>
  <g id="bullet-char-template-8226" transform="scale(0.00048828125,-0.00048828125)">
   <path d="M 346,457 C 273,457 209,483 155,535 101,586 74,649 74,723 74,796 101,859 155,911 209,963 273,989 346,989 419,989 480,963 531,910 582,859 608,796 608,723 608,648 583,586 532,535 482,483 420,457 346,457 Z"/>
  </g>
  <g id="bullet-char-template-8211" transform="scale(0.00048828125,-0.00048828125)">
   <path d="M -4,459 L 1135,459 1135,606 -4,606 -4,459 Z"/>
  </g>
  <g id="bullet-char-template-61548" transform="scale(0.00048828125,-0.00048828125)">
   <path d="M 173,740 C 173,903 231,1043 346,1159 462,1274 601,1332 765,1332 928,1332 1067,1274 1183,1159 1299,1043 1357,903 1357,740 1357,577 1299,437 1183,322 1067,206 928,148 765,148 601,148 462,206 346,322 231,437 173,577 173,740 Z"/>
  </g>
 </defs>
 <g class="Page">
  <g class="com.sun.star.drawing.PolyPolygonShape">
   <g id="id3">
    <rect class="BoundingBox" stroke="none" fill="none" x="13" y="13" width="7101" height="7101"/>
    <path fill="rgb(83,83,123)" stroke="none" d="M 3564,7112 L 14,7112 14,14 7112,14 7112,7112 3564,7112 Z"/>
   </g>
  </g>
  <g class="Group">
   <g class="com.sun.star.drawing.PolyPolygonShape">
    <g id="id4">
     <rect class="BoundingBox" stroke="none" fill="none" x="2107" y="2225" width="2914" height="1624"/>
     <path fill="rgb(0,0,0)" stroke="none" d="M 5018,2226 L 5020,2303 5018,2381 5012,2459 5004,2534 4991,2611 4975,2684 4955,2757 4932,2832 4905,2905 4876,2975 4843,3043 4806,3108 4767,3174 4724,3234 4677,3297 4631,3353 4580,3411 4526,3462 4469,3513 4413,3557 4352,3603 4290,3641 4226,3680 4160,3714 4094,3741 4025,3770 3955,3792 3885,3809 3813,3826 3741,3838 3669,3843 3597,3847 3529,3847 3457,3843 3385,3838 3313,3826 3241,3809 3171,3792 3101,3770 3033,3741 2967,3714 2901,3680 2837,3641 2774,3603 2714,3557 2658,3513 2601,3462 2547,3411 2496,3353 2450,3297 2403,3234 2360,3174 2321,3108 2284,3043 2251,2975 2222,2905 2195,2832 2171,2757 2152,2684 2136,2611 2123,2534 2115,2459 2109,2381 2107,2303 2109,2226 3442,2296 3442,2303 3442,2308 3442,2318 3444,2323 3444,2330 3446,2337 3448,2342 3450,2347 3452,2357 3455,2362 3457,2369 3461,2374 3465,2379 3467,2383 3471,2391 3477,2393 3481,2398 3485,2405 3490,2408 3494,2412 3500,2415 3506,2417 3512,2422 3518,2425 3524,2427 3529,2429 3535,2432 3541,2432 3547,2432 3555,2434 3560,2434 3566,2434 3568,2434 3572,2434 3580,2432 3586,2432 3592,2432 3597,2429 3603,2427 3609,2425 3615,2422 3621,2417 3627,2415 3632,2412 3636,2408 3642,2405 3646,2398 3650,2393 3656,2391 3660,2383 3662,2379 3666,2374 3669,2369 3671,2362 3675,2357 3677,2347 3679,2342 3681,2337 3683,2330 3683,2323 3685,2318 3685,2308 3685,2303 3685,2296 5018,2226 Z"/>
    </g>
   </g>
   <g class="com.sun.star.drawing.PolyPolygonShape">
    <g id="id5">
     <rect class="BoundingBox" stroke="none" fill="none" x="245" y="1790" width="6637" height="3547"/>
     <path fill="none" stroke="rgb(0,0,0)" stroke-width="635" stroke-linejoin="round" d="M 3565,5018 L 563,5018 563,2108 6563,2108 6563,5018 3565,5018 Z"/>
    </g>
   </g>
  </g>
 </g>
</svg>