<?xml version="1.0" encoding="UTF-8"?>
<!DOCTYPE svg PUBLIC "-//W3C//DTD SVG 1.1//EN" "http://www.w3.org/Graphics/SVG/1.1/DTD/svg11.dtd">
<svg version="1.2" width="55.03mm" height="55.02mm" viewBox="5225 12450 5503 5502" preserveAspectRatio="xMidYMid" fill-rule="evenodd" stroke-width="28.222" stroke-linejoin="round" xmlns="http://www.w3.org/2000/svg" xmlns:ooo="http://xml.openoffice.org/svg/export" xmlns:xlink="http://www.w3.org/1999/xlink" xmlns:presentation="http://sun.com/xmlns/staroffice/presentation" xmlns:smil="http://www.w3.org/2001/SMIL20/" xmlns:anim="urn:oasis:names:tc:opendocument:xmlns:animation:1.0" xml:space="preserve">
 <defs class="EmbeddedBulletChars">
  <g id="bullet-char-template-57356" transform="scale(0.00048828125,-0.00048828125)">
   <path d="M 580,1141 L 1163,571 580,0 -4,571 580,1141 Z"/>
  </g>
  <g id="bullet-char-template-57354" transform="scale(0.00048828125,-0.00048828125)">
   <path d="M 8,1128 L 1137,1128 1137,0 8,0 8,1128 Z"/>
  </g>
  <g id="bullet-char-template-10146" transform="scale(0.00048828125,-0.00048828125)">
   <path d="M 174,0 L 602,739 174,1481 1456,739 174,0 Z M 1358,739 L 309,1346 659,739 1358,739 Z"/>
  </g>
  <g id="bullet-char-template-10132" transform="scale(0.00048828125,-0.00048828125)">
   <path d="M 2015,739 L 1276,0 717,0 1260,543 174,543 174,936 1260,936 717,1481 1274,1481 2015,739 Z"/>
  </g>
  <g id="bullet-char-template-10007" transform="scale(0.00048828125,-0.00048828125)">
   <path d="M 0,-2 C -7,14 -16,27 -25,37 L 356,567 C 262,823 215,952 215,954 215,979 228,992 255,992 264,992 276,990 289,987 310,991 331,999 354,1012 L 381,999 492,748 772,1049 836,1024 860,1049 C 881,1039 901,1025 922,1006 886,937 835,863 770,784 769,783 710,716 594,584 L 774,223 C 774,196 753,168 711,139 L 727,119 C 717,90 699,76 672,76 641,76 570,178 457,381 L 164,-76 C 142,-110 111,-127 72,-127 30,-127 9,-110 8,-76 1,-67 -2,-52 -2,-32 -2,-23 -1,-13 0,-2 Z"/>
  </g>
  <g id="bullet-char-template-10004" transform="scale(0.00048828125,-0.00048828125)">
   <path d="M 285,-33 C 182,-33 111,30 74,156 52,228 41,333 41,471 41,549 55,616 82,672 116,743 169,778 240,778 293,778 328,747 346,684 L 369,508 C 377,444 397,411 428,410 L 1163,1116 C 1174,1127 1196,1133 1229,1133 1271,1133 1292,1118 1292,1087 L 1292,965 C 1292,929 1282,901 1262,881 L 442,47 C 390,-6 338,-33 285,-33 Z"/>
  </g>
  <g id="bullet-char-template-9679" transform="scale(0.00048828125,-0.00048828125)">
   <path d="M 813,0 C 632,0 489,54 383,161 276,268 223,411 223,592 223,773 276,916 383,1023 489,1130 632,1184 813,1184 992,1184 1136,1130 1245,1023 1353,916 1407,772 1407,592 1407,412 1353,268 1245,161 1136,54 992,0 813,0 Z"/>
  </g>
  <g id="bullet-char-template-8226" transform="scale(0.00048828125,-0.00048828125)">
   <path d="M 346,457 C 273,457 209,483 155,535 101,586 74,649 74,723 74,796 101,859 155,911 209,963 273,989 346,989 419,989 480,963 531,910 582,859 608,796 608,723 608,648 583,586 532,535 482,483 420,457 346,457 Z"/>
  </g>
  <g id="bullet-char-template-8211" transform="scale(0.00048828125,-0.00048828125)">
   <path d="M -4,459 L 1135,459 1135,606 -4,606 -4,459 Z"/>
  </g>
  <g id="bullet-char-template-61548" transform="scale(0.00048828125,-0.00048828125)">
   <path d="M 173,740 C 173,903 231,1043 346,1159 462,1274 601,1332 765,1332 928,1332 1067,1274 1183,1159 1299,1043 1357,903 1357,740 1357,577 1299,437 1183,322 1067,206 928,148 765,148 601,148 462,206 346,322 231,437 173,577 173,740 Z"/>
  </g>
 </defs>
 <g class="Page">
  <g class="com.sun.star.drawing.CustomShape">
   <g id="id3">
    <rect class="BoundingBox" stroke="none" fill="none" x="5225" y="12450" width="5503" height="5502"/>
    <path fill="rgb(114,159,207)" stroke="none" d="M 10727,15201 C 10727,15683 10600,16158 10359,16576 10117,16994 9770,17341 9352,17583 8934,17824 8459,17951 7977,17951 7494,17951 7019,17824 6601,17583 6183,17341 5836,16994 5594,16576 5353,16158 5226,15683 5226,15201 5226,14718 5353,14243 5594,13825 5836,13407 6183,13060 6601,12818 7019,12577 7494,12450 7976,12450 8459,12450 8934,12577 9352,12818 9770,13060 10117,13407 10359,13825 10600,14243 10727,14718 10727,15200 L 10727,15201 Z"/>
   </g>
  </g>
  <g class="Group">
   <g class="com.sun.star.drawing.CustomShape">
    <g id="id4">
     <rect class="BoundingBox" stroke="none" fill="none" x="6327" y="13142" width="1552" height="1552"/>
     <path fill="rgb(255,255,255)" stroke="none" d="M 7878,13918 C 7878,14054 7842,14187 7774,14305 7706,14423 7608,14521 7490,14589 7372,14657 7239,14693 7103,14693 6966,14693 6833,14657 6715,14589 6597,14521 6499,14423 6431,14305 6363,14187 6327,14054 6327,13918 6327,13781 6363,13648 6431,13530 6499,13412 6597,13314 6715,13246 6833,13178 6966,13142 7102,13142 7239,13142 7372,13178 7490,13246 7608,13314 7706,13412 7774,13530 7842,13648 7878,13781 7878,13918 L 7878,13918 Z"/>
    </g>
   </g>
   <g class="com.sun.star.drawing.CustomShape">
    <g id="id5">
     <rect class="BoundingBox" stroke="none" fill="none" x="6327" y="15709" width="1552" height="1552"/>
     <path fill="rgb(255,255,255)" stroke="none" d="M 7878,16485 C 7878,16621 7842,16754 7774,16872 7706,16990 7608,17088 7490,17156 7372,17224 7239,17260 7103,17260 6966,17260 6833,17224 6715,17156 6597,17088 6499,16990 6431,16872 6363,16754 6327,16621 6327,16485 6327,16348 6363,16215 6431,16097 6499,15979 6597,15881 6715,15813 6833,15745 6966,15709 7102,15709 7239,15709 7372,15745 7490,15813 7608,15881 7706,15979 7774,16097 7842,16215 7878,16348 7878,16485 L 7878,16485 Z"/>
    </g>
   </g>
  </g>
  <g class="com.sun.star.drawing.CustomShape">
   <g id="id6">
    <rect class="BoundingBox" stroke="none" fill="none" x="8700" y="14425" width="1552" height="1552"/>
    <path fill="rgb(255,255,255)" stroke="none" d="M 10251,15201 C 10251,15337 10215,15470 10147,15588 10079,15706 9981,15804 9863,15872 9745,15940 9612,15976 9476,15976 9339,15976 9206,15940 9088,15872 8970,15804 8872,15706 8804,15588 8736,15470 8700,15337 8700,15201 8700,15064 8736,14931 8804,14813 8872,14695 8970,14597 9088,14529 9206,14461 9339,14425 9476,14425 9612,14425 9745,14461 9863,14529 9981,14597 10079,14695 10147,14813 10215,14931 10251,15064 10251,15201 L 10251,15201 Z"/>
   </g>
  </g>
 </g>
</svg>