<?xml version="1.0" encoding="UTF-8"?>
<!DOCTYPE svg PUBLIC "-//W3C//DTD SVG 1.1//EN" "http://www.w3.org/Graphics/SVG/1.1/DTD/svg11.dtd">
<svg version="1.2" width="55.03mm" height="55.03mm" viewBox="5249 5249 5503 5503" preserveAspectRatio="xMidYMid" fill-rule="evenodd" stroke-width="28.222" stroke-linejoin="round" xmlns="http://www.w3.org/2000/svg" xmlns:ooo="http://xml.openoffice.org/svg/export" xmlns:xlink="http://www.w3.org/1999/xlink" xmlns:presentation="http://sun.com/xmlns/staroffice/presentation" xmlns:smil="http://www.w3.org/2001/SMIL20/" xmlns:anim="urn:oasis:names:tc:opendocument:xmlns:animation:1.0" xml:space="preserve">
 <defs class="EmbeddedBulletChars">
  <g id="bullet-char-template-57356" transform="scale(0.00048828125,-0.00048828125)">
   <path d="M 580,1141 L 1163,571 580,0 -4,571 580,1141 Z"/>
  </g>
  <g id="bullet-char-template-57354" transform="scale(0.00048828125,-0.00048828125)">
   <path d="M 8,1128 L 1137,1128 1137,0 8,0 8,1128 Z"/>
  </g>
  <g id="bullet-char-template-10146" transform="scale(0.00048828125,-0.00048828125)">
   <path d="M 174,0 L 602,739 174,1481 1456,739 174,0 Z M 1358,739 L 309,1346 659,739 1358,739 Z"/>
  </g>
  <g id="bullet-char-template-10132" transform="scale(0.00048828125,-0.00048828125)">
   <path d="M 2015,739 L 1276,0 717,0 1260,543 174,543 174,936 1260,936 717,1481 1274,1481 2015,739 Z"/>
  </g>
  <g id="bullet-char-template-10007" transform="scale(0.00048828125,-0.00048828125)">
   <path d="M 0,-2 C -7,14 -16,27 -25,37 L 356,567 C 262,823 215,952 215,954 215,979 228,992 255,992 264,992 276,990 289,987 310,991 331,999 354,1012 L 381,999 492,748 772,1049 836,1024 860,1049 C 881,1039 901,1025 922,1006 886,937 835,863 770,784 769,783 710,716 594,584 L 774,223 C 774,196 753,168 711,139 L 727,119 C 717,90 699,76 672,76 641,76 570,178 457,381 L 164,-76 C 142,-110 111,-127 72,-127 30,-127 9,-110 8,-76 1,-67 -2,-52 -2,-32 -2,-23 -1,-13 0,-2 Z"/>
  </g>
  <g id="bullet-char-template-10004" transform="scale(0.00048828125,-0.00048828125)">
   <path d="M 285,-33 C 182,-33 111,30 74,156 52,228 41,333 41,471 41,549 55,616 82,672 116,743 169,778 240,778 293,778 328,747 346,684 L 369,508 C 377,444 397,411 428,410 L 1163,1116 C 1174,1127 1196,1133 1229,1133 1271,1133 1292,1118 1292,1087 L 1292,965 C 1292,929 1282,901 1262,881 L 442,47 C 390,-6 338,-33 285,-33 Z"/>
  </g>
  <g id="bullet-char-template-9679" transform="scale(0.00048828125,-0.00048828125)">
   <path d="M 813,0 C 632,0 489,54 383,161 276,268 223,411 223,592 223,773 276,916 383,1023 489,1130 632,1184 813,1184 992,1184 1136,1130 1245,1023 1353,916 1407,772 1407,592 1407,412 1353,268 1245,161 1136,54 992,0 813,0 Z"/>
  </g>
  <g id="bullet-char-template-8226" transform="scale(0.00048828125,-0.00048828125)">
   <path d="M 346,457 C 273,457 209,483 155,535 101,586 74,649 74,723 74,796 101,859 155,911 209,963 273,989 346,989 419,989 480,963 531,910 582,859 608,796 608,723 608,648 583,586 532,535 482,483 420,457 346,457 Z"/>
  </g>
  <g id="bullet-char-template-8211" transform="scale(0.00048828125,-0.00048828125)">
   <path d="M -4,459 L 1135,459 1135,606 -4,606 -4,459 Z"/>
  </g>
  <g id="bullet-char-template-61548" transform="scale(0.00048828125,-0.00048828125)">
   <path d="M 173,740 C 173,903 231,1043 346,1159 462,1274 601,1332 765,1332 928,1332 1067,1274 1183,1159 1299,1043 1357,903 1357,740 1357,577 1299,437 1183,322 1067,206 928,148 765,148 601,148 462,206 346,322 231,437 173,577 173,740 Z"/>
  </g>
 </defs>
 <g class="Page">
  <g class="com.sun.star.drawing.CustomShape">
   <g id="id3">
    <rect class="BoundingBox" stroke="none" fill="none" x="5249" y="5249" width="5503" height="5503"/>
    <path fill="rgb(114,159,207)" stroke="none" d="M 10751,8001 C 10751,8483 10624,8958 10383,9376 10141,9794 9794,10141 9376,10383 8958,10624 8483,10751 8001,10751 7518,10751 7043,10624 6625,10383 6207,10141 5860,9794 5618,9376 5377,8958 5250,8483 5250,8001 5250,7518 5377,7043 5618,6625 5860,6207 6207,5860 6625,5618 7043,5377 7518,5250 8000,5250 8483,5250 8958,5377 9376,5618 9794,5860 10141,6207 10383,6625 10624,7043 10751,7518 10751,8000 L 10751,8001 Z"/>
   </g>
  </g>
  <g class="Group">
   <g class="com.sun.star.drawing.CustomShape">
    <g id="id4">
     <rect class="BoundingBox" stroke="none" fill="none" x="7625" y="6501" width="752" height="753"/>
     <path fill="rgb(255,255,255)" stroke="none" d="M 8376,6877 C 8376,6942 8359,7007 8326,7064 8293,7121 8245,7169 8188,7202 8131,7235 8066,7252 8001,7252 7935,7252 7870,7235 7813,7202 7756,7169 7708,7121 7675,7064 7642,7007 7625,6942 7625,6877 7625,6811 7642,6746 7675,6689 7708,6632 7756,6584 7813,6551 7870,6518 7935,6501 8001,6501 8066,6501 8131,6518 8188,6551 8245,6584 8293,6632 8326,6689 8359,6746 8376,6811 8376,6877 L 8376,6877 Z"/>
    </g>
   </g>
   <g class="com.sun.star.drawing.CustomShape">
    <g id="id5">
     <rect class="BoundingBox" stroke="none" fill="none" x="7625" y="7601" width="752" height="753"/>
     <path fill="rgb(255,255,255)" stroke="none" d="M 8376,7977 C 8376,8042 8359,8107 8326,8164 8293,8221 8245,8269 8188,8302 8131,8335 8066,8352 8001,8352 7935,8352 7870,8335 7813,8302 7756,8269 7708,8221 7675,8164 7642,8107 7625,8042 7625,7977 7625,7911 7642,7846 7675,7789 7708,7732 7756,7684 7813,7651 7870,7618 7935,7601 8001,7601 8066,7601 8131,7618 8188,7651 8245,7684 8293,7732 8326,7789 8359,7846 8376,7911 8376,7977 L 8376,7977 Z"/>
    </g>
   </g>
   <g class="com.sun.star.drawing.CustomShape">
    <g id="id6">
     <rect class="BoundingBox" stroke="none" fill="none" x="7625" y="8750" width="752" height="752"/>
     <path fill="rgb(255,255,255)" stroke="none" d="M 8376,9126 C 8376,9191 8359,9256 8326,9313 8293,9370 8245,9418 8188,9451 8131,9484 8066,9501 8001,9501 7935,9501 7870,9484 7813,9451 7756,9418 7708,9370 7675,9313 7642,9256 7625,9191 7625,9126 7625,9060 7642,8995 7675,8938 7708,8881 7756,8833 7813,8800 7870,8767 7935,8750 8001,8750 8066,8750 8131,8767 8188,8800 8245,8833 8293,8881 8326,8938 8359,8995 8376,9060 8376,9126 L 8376,9126 Z"/>
    </g>
   </g>
  </g>
  <g class="Group">
   <g class="com.sun.star.drawing.CustomShape">
    <g id="id7">
     <rect class="BoundingBox" stroke="none" fill="none" x="8726" y="6502" width="752" height="753"/>
     <path fill="rgb(255,255,255)" stroke="none" d="M 9477,6878 C 9477,6943 9460,7008 9427,7065 9394,7122 9346,7170 9289,7203 9232,7236 9167,7253 9102,7253 9036,7253 8971,7236 8914,7203 8857,7170 8809,7122 8776,7065 8743,7008 8726,6943 8726,6878 8726,6812 8743,6747 8776,6690 8809,6633 8857,6585 8914,6552 8971,6519 9036,6502 9102,6502 9167,6502 9232,6519 9289,6552 9346,6585 9394,6633 9427,6690 9460,6747 9477,6812 9477,6878 L 9477,6878 Z"/>
    </g>
   </g>
   <g class="com.sun.star.drawing.CustomShape">
    <g id="id8">
     <rect class="BoundingBox" stroke="none" fill="none" x="8726" y="7602" width="752" height="753"/>
     <path fill="rgb(255,255,255)" stroke="none" d="M 9477,7978 C 9477,8043 9460,8108 9427,8165 9394,8222 9346,8270 9289,8303 9232,8336 9167,8353 9102,8353 9036,8353 8971,8336 8914,8303 8857,8270 8809,8222 8776,8165 8743,8108 8726,8043 8726,7978 8726,7912 8743,7847 8776,7790 8809,7733 8857,7685 8914,7652 8971,7619 9036,7602 9102,7602 9167,7602 9232,7619 9289,7652 9346,7685 9394,7733 9427,7790 9460,7847 9477,7912 9477,7978 L 9477,7978 Z"/>
    </g>
   </g>
   <g class="com.sun.star.drawing.CustomShape">
    <g id="id9">
     <rect class="BoundingBox" stroke="none" fill="none" x="8726" y="8751" width="752" height="752"/>
     <path fill="rgb(255,255,255)" stroke="none" d="M 9477,9127 C 9477,9192 9460,9257 9427,9314 9394,9371 9346,9419 9289,9452 9232,9485 9167,9502 9102,9502 9036,9502 8971,9485 8914,9452 8857,9419 8809,9371 8776,9314 8743,9257 8726,9192 8726,9127 8726,9061 8743,8996 8776,8939 8809,8882 8857,8834 8914,8801 8971,8768 9036,8751 9102,8751 9167,8751 9232,8768 9289,8801 9346,8834 9394,8882 9427,8939 9460,8996 9477,9061 9477,9127 L 9477,9127 Z"/>
    </g>
   </g>
  </g>
  <g class="Group">
   <g class="com.sun.star.drawing.CustomShape">
    <g id="id10">
     <rect class="BoundingBox" stroke="none" fill="none" x="6526" y="6502" width="752" height="753"/>
     <path fill="rgb(255,255,255)" stroke="none" d="M 7277,6878 C 7277,6943 7260,7008 7227,7065 7194,7122 7146,7170 7089,7203 7032,7236 6967,7253 6902,7253 6836,7253 6771,7236 6714,7203 6657,7170 6609,7122 6576,7065 6543,7008 6526,6943 6526,6878 6526,6812 6543,6747 6576,6690 6609,6633 6657,6585 6714,6552 6771,6519 6836,6502 6902,6502 6967,6502 7032,6519 7089,6552 7146,6585 7194,6633 7227,6690 7260,6747 7277,6812 7277,6878 L 7277,6878 Z"/>
    </g>
   </g>
   <g class="com.sun.star.drawing.CustomShape">
    <g id="id11">
     <rect class="BoundingBox" stroke="none" fill="none" x="6526" y="7602" width="752" height="753"/>
     <path fill="rgb(255,255,255)" stroke="none" d="M 7277,7978 C 7277,8043 7260,8108 7227,8165 7194,8222 7146,8270 7089,8303 7032,8336 6967,8353 6902,8353 6836,8353 6771,8336 6714,8303 6657,8270 6609,8222 6576,8165 6543,8108 6526,8043 6526,7978 6526,7912 6543,7847 6576,7790 6609,7733 6657,7685 6714,7652 6771,7619 6836,7602 6902,7602 6967,7602 7032,7619 7089,7652 7146,7685 7194,7733 7227,7790 7260,7847 7277,7912 7277,7978 L 7277,7978 Z"/>
    </g>
   </g>
   <g class="com.sun.star.drawing.CustomShape">
    <g id="id12">
     <rect class="BoundingBox" stroke="none" fill="none" x="6526" y="8751" width="752" height="752"/>
     <path fill="rgb(255,255,255)" stroke="none" d="M 7277,9127 C 7277,9192 7260,9257 7227,9314 7194,9371 7146,9419 7089,9452 7032,9485 6967,9502 6902,9502 6836,9502 6771,9485 6714,9452 6657,9419 6609,9371 6576,9314 6543,9257 6526,9192 6526,9127 6526,9061 6543,8996 6576,8939 6609,8882 6657,8834 6714,8801 6771,8768 6836,8751 6902,8751 6967,8751 7032,8768 7089,8801 7146,8834 7194,8882 7227,8939 7260,8996 7277,9061 7277,9127 L 7277,9127 Z"/>
    </g>
   </g>
  </g>
 </g>
</svg>