<?xml version="1.0" encoding="UTF-8"?>
<!DOCTYPE svg PUBLIC "-//W3C//DTD SVG 1.1//EN" "http://www.w3.org/Graphics/SVG/1.1/DTD/svg11.dtd">
<svg version="1.2" width="140.01mm" height="140.01mm" viewBox="1500 6500 14001 14001" preserveAspectRatio="xMidYMid" fill-rule="evenodd" stroke-width="28.222" stroke-linejoin="round" xmlns="http://www.w3.org/2000/svg" xmlns:ooo="http://xml.openoffice.org/svg/export" xmlns:xlink="http://www.w3.org/1999/xlink" xmlns:presentation="http://sun.com/xmlns/staroffice/presentation" xmlns:smil="http://www.w3.org/2001/SMIL20/" xmlns:anim="urn:oasis:names:tc:opendocument:xmlns:animation:1.0" xml:space="preserve">
 <defs class="EmbeddedBulletChars">
  <g id="bullet-char-template-57356" transform="scale(0.00048828125,-0.00048828125)">
   <path d="M 580,1141 L 1163,571 580,0 -4,571 580,1141 Z"/>
  </g>
  <g id="bullet-char-template-57354" transform="scale(0.00048828125,-0.00048828125)">
   <path d="M 8,1128 L 1137,1128 1137,0 8,0 8,1128 Z"/>
  </g>
  <g id="bullet-char-template-10146" transform="scale(0.00048828125,-0.00048828125)">
   <path d="M 174,0 L 602,739 174,1481 1456,739 174,0 Z M 1358,739 L 309,1346 659,739 1358,739 Z"/>
  </g>
  <g id="bullet-char-template-10132" transform="scale(0.00048828125,-0.00048828125)">
   <path d="M 2015,739 L 1276,0 717,0 1260,543 174,543 174,936 1260,936 717,1481 1274,1481 2015,739 Z"/>
  </g>
  <g id="bullet-char-template-10007" transform="scale(0.00048828125,-0.00048828125)">
   <path d="M 0,-2 C -7,14 -16,27 -25,37 L 356,567 C 262,823 215,952 215,954 215,979 228,992 255,992 264,992 276,990 289,987 310,991 331,999 354,1012 L 381,999 492,748 772,1049 836,1024 860,1049 C 881,1039 901,1025 922,1006 886,937 835,863 770,784 769,783 710,716 594,584 L 774,223 C 774,196 753,168 711,139 L 727,119 C 717,90 699,76 672,76 641,76 570,178 457,381 L 164,-76 C 142,-110 111,-127 72,-127 30,-127 9,-110 8,-76 1,-67 -2,-52 -2,-32 -2,-23 -1,-13 0,-2 Z"/>
  </g>
  <g id="bullet-char-template-10004" transform="scale(0.00048828125,-0.00048828125)">
   <path d="M 285,-33 C 182,-33 111,30 74,156 52,228 41,333 41,471 41,549 55,616 82,672 116,743 169,778 240,778 293,778 328,747 346,684 L 369,508 C 377,444 397,411 428,410 L 1163,1116 C 1174,1127 1196,1133 1229,1133 1271,1133 1292,1118 1292,1087 L 1292,965 C 1292,929 1282,901 1262,881 L 442,47 C 390,-6 338,-33 285,-33 Z"/>
  </g>
  <g id="bullet-char-template-9679" transform="scale(0.00048828125,-0.00048828125)">
   <path d="M 813,0 C 632,0 489,54 383,161 276,268 223,411 223,592 223,773 276,916 383,1023 489,1130 632,1184 813,1184 992,1184 1136,1130 1245,1023 1353,916 1407,772 1407,592 1407,412 1353,268 1245,161 1136,54 992,0 813,0 Z"/>
  </g>
  <g id="bullet-char-template-8226" transform="scale(0.00048828125,-0.00048828125)">
   <path d="M 346,457 C 273,457 209,483 155,535 101,586 74,649 74,723 74,796 101,859 155,911 209,963 273,989 346,989 419,989 480,963 531,910 582,859 608,796 608,723 608,648 583,586 532,535 482,483 420,457 346,457 Z"/>
  </g>
  <g id="bullet-char-template-8211" transform="scale(0.00048828125,-0.00048828125)">
   <path d="M -4,459 L 1135,459 1135,606 -4,606 -4,459 Z"/>
  </g>
  <g id="bullet-char-template-61548" transform="scale(0.00048828125,-0.00048828125)">
   <path d="M 173,740 C 173,903 231,1043 346,1159 462,1274 601,1332 765,1332 928,1332 1067,1274 1183,1159 1299,1043 1357,903 1357,740 1357,577 1299,437 1183,322 1067,206 928,148 765,148 601,148 462,206 346,322 231,437 173,577 173,740 Z"/>
  </g>
 </defs>
 <g class="Page">
  <g class="com.sun.star.drawing.CustomShape">
   <g id="id3">
    <rect class="BoundingBox" stroke="none" fill="none" x="1500" y="6500" width="14001" height="14001"/>
    <path fill="rgb(83,83,123)" stroke="none" d="M 8500,20500 L 1500,20500 1500,6500 15500,6500 15500,20500 8500,20500 Z"/>
   </g>
  </g>
  <g class="com.sun.star.drawing.CustomShape">
   <g id="id4">
    <rect class="BoundingBox" stroke="none" fill="none" x="6012" y="12429" width="4996" height="1411"/>
    <path fill="rgb(177,200,0)" stroke="none" d="M 8510,13786 L 6065,13786 6065,12482 10954,12482 10954,13786 8510,13786 Z"/>
    <path fill="none" stroke="rgb(0,0,0)" stroke-width="106" stroke-linejoin="round" d="M 8510,13786 L 6065,13786 6065,12482 10954,12482 10954,13786 8510,13786 Z"/>
   </g>
  </g>
  <g class="com.sun.star.drawing.CustomShape">
   <g id="id5">
    <rect class="BoundingBox" stroke="none" fill="none" x="7750" y="12476" width="1501" height="576"/>
    <path fill="rgb(163,255,38)" stroke="none" d="M 9249,12476 L 9250,12503 9249,12531 9246,12558 9242,12585 9235,12612 9227,12638 9217,12664 9205,12690 9191,12716 9176,12741 9159,12765 9140,12788 9120,12811 9098,12833 9074,12855 9050,12875 9024,12895 8996,12913 8967,12931 8938,12947 8907,12963 8875,12977 8842,12990 8808,13002 8774,13012 8739,13022 8703,13030 8667,13036 8630,13042 8593,13046 8556,13048 8519,13050 8481,13050 8444,13048 8407,13046 8370,13042 8333,13036 8297,13030 8261,13022 8226,13012 8192,13002 8158,12990 8125,12977 8093,12963 8062,12947 8033,12931 8004,12913 7976,12895 7950,12875 7926,12855 7902,12833 7880,12811 7860,12788 7841,12765 7824,12741 7809,12716 7795,12690 7783,12664 7773,12638 7765,12612 7758,12585 7754,12558 7751,12531 7750,12503 7751,12476 8436,12501 8436,12503 8436,12505 8436,12508 8437,12510 8437,12513 8438,12515 8439,12517 8440,12519 8441,12522 8443,12524 8444,12526 8446,12528 8448,12530 8449,12532 8451,12534 8454,12535 8456,12537 8458,12539 8461,12540 8463,12542 8466,12543 8469,12544 8472,12545 8475,12546 8478,12547 8481,12548 8484,12549 8487,12549 8490,12549 8494,12550 8497,12550 8500,12550 8503,12550 8506,12550 8510,12549 8513,12549 8516,12549 8519,12548 8522,12547 8525,12546 8528,12545 8531,12544 8534,12543 8537,12542 8539,12540 8542,12539 8544,12537 8546,12535 8549,12534 8551,12532 8552,12530 8554,12528 8556,12526 8557,12524 8559,12522 8560,12519 8561,12517 8562,12515 8563,12513 8563,12510 8564,12508 8564,12505 8564,12503 8564,12501 9249,12476 Z"/>
   </g>
  </g>
  <g class="com.sun.star.drawing.CustomShape">
   <g id="id6">
    <rect class="BoundingBox" stroke="none" fill="none" x="7556" y="12431" width="1890" height="1411"/>
    <path fill="none" stroke="rgb(0,0,0)" stroke-width="106" stroke-linejoin="round" d="M 8501,13788 L 7609,13788 7609,12484 9392,12484 9392,13788 8501,13788 Z"/>
   </g>
  </g>
  <g class="com.sun.star.drawing.ClosedBezierShape">
   <g id="id7">
    <rect class="BoundingBox" stroke="none" fill="none" x="5299" y="11931" width="6403" height="3139"/>
    <path fill="rgb(180,180,6)" stroke="none" d="M 11660,15028 L 11660,11972 10845,11976 C 10845,12401 10737,12818 10531,13186 10325,13554 10030,13859 9674,14072 9317,14284 8913,14396 8502,14396 8090,14396 7687,14284 7330,14072 6973,13859 6678,13554 6472,13186 6267,12818 6158,12401 6158,11976 L 5340,11972 5340,15028 11660,15028 Z"/>
    <path fill="none" stroke="rgb(0,0,0)" stroke-width="81" stroke-linejoin="round" d="M 11660,15028 L 11660,11972 10845,11976 C 10845,12401 10737,12818 10531,13186 10325,13554 10030,13859 9674,14072 9317,14284 8913,14396 8502,14396 8090,14396 7687,14284 7330,14072 6973,13859 6678,13554 6472,13186 6267,12818 6158,12401 6158,11976 L 5340,11972 5340,15028 11660,15028 Z"/>
   </g>
  </g>
 </g>
</svg>